<mxfile host="app.diagrams.net" agent="Mozilla/5.0 (Windows NT 10.0; Win64; x64) AppleWebKit/537.36 (KHTML, like Gecko) Chrome/131.0.0.0 Safari/537.36" version="24.8.6">
  <diagram name="Page-1" id="e7e014a7-5840-1c2e-5031-d8a46d1fe8dd">
    <mxGraphModel dx="1509" dy="821" grid="1" gridSize="10" guides="1" tooltips="1" connect="1" arrows="1" fold="1" page="1" pageScale="1" pageWidth="1169" pageHeight="826" background="none" math="0" shadow="0">
      <root>
        <mxCell id="0" />
        <mxCell id="1" parent="0" />
        <mxCell id="M0ssaXphybHZ1SHobrus-79" value="" style="whiteSpace=wrap;html=1;aspect=fixed;" vertex="1" parent="1">
          <mxGeometry x="210" y="70" width="850" height="850" as="geometry" />
        </mxCell>
        <mxCell id="M0ssaXphybHZ1SHobrus-44" value="Cliente" style="shape=umlActor;verticalLabelPosition=bottom;verticalAlign=top;html=1;outlineConnect=0;" vertex="1" parent="1">
          <mxGeometry x="70" y="368" width="40" height="90" as="geometry" />
        </mxCell>
        <mxCell id="M0ssaXphybHZ1SHobrus-46" value="IA" style="shape=umlActor;verticalLabelPosition=bottom;verticalAlign=top;html=1;outlineConnect=0;" vertex="1" parent="1">
          <mxGeometry x="1070" y="340" width="40" height="80" as="geometry" />
        </mxCell>
        <mxCell id="M0ssaXphybHZ1SHobrus-47" value="Fazer Login" style="ellipse;whiteSpace=wrap;html=1;" vertex="1" parent="1">
          <mxGeometry x="440" y="130" width="120" height="80" as="geometry" />
        </mxCell>
        <mxCell id="M0ssaXphybHZ1SHobrus-48" value="Criar Personagens" style="ellipse;whiteSpace=wrap;html=1;" vertex="1" parent="1">
          <mxGeometry x="410" y="230" width="120" height="80" as="geometry" />
        </mxCell>
        <mxCell id="M0ssaXphybHZ1SHobrus-49" value="Criar Sala de jogo com um código da sala" style="ellipse;whiteSpace=wrap;html=1;" vertex="1" parent="1">
          <mxGeometry x="330" y="333" width="120" height="80" as="geometry" />
        </mxCell>
        <mxCell id="M0ssaXphybHZ1SHobrus-50" value="Entrar na Sala de jogo criada por outro utilizador através do código da sala" style="ellipse;whiteSpace=wrap;html=1;" vertex="1" parent="1">
          <mxGeometry x="430" y="470" width="120" height="80" as="geometry" />
        </mxCell>
        <mxCell id="M0ssaXphybHZ1SHobrus-51" value="Começar o Jogo" style="ellipse;whiteSpace=wrap;html=1;" vertex="1" parent="1">
          <mxGeometry x="440" y="610" width="120" height="80" as="geometry" />
        </mxCell>
        <mxCell id="M0ssaXphybHZ1SHobrus-52" value="Acabar o jogo" style="ellipse;whiteSpace=wrap;html=1;" vertex="1" parent="1">
          <mxGeometry x="650" y="730" width="120" height="80" as="geometry" />
        </mxCell>
        <mxCell id="M0ssaXphybHZ1SHobrus-54" value="" style="endArrow=none;html=1;rounded=0;entryX=0;entryY=0.5;entryDx=0;entryDy=0;exitX=1;exitY=0.3333333333333333;exitDx=0;exitDy=0;exitPerimeter=0;" edge="1" parent="1" source="M0ssaXphybHZ1SHobrus-44" target="M0ssaXphybHZ1SHobrus-47">
          <mxGeometry width="50" height="50" relative="1" as="geometry">
            <mxPoint x="170" y="200" as="sourcePoint" />
            <mxPoint x="220" y="150" as="targetPoint" />
          </mxGeometry>
        </mxCell>
        <mxCell id="M0ssaXphybHZ1SHobrus-55" value="" style="endArrow=none;html=1;rounded=0;entryX=0;entryY=0.5;entryDx=0;entryDy=0;exitX=1;exitY=0.3333333333333333;exitDx=0;exitDy=0;exitPerimeter=0;" edge="1" parent="1" source="M0ssaXphybHZ1SHobrus-44" target="M0ssaXphybHZ1SHobrus-48">
          <mxGeometry width="50" height="50" relative="1" as="geometry">
            <mxPoint x="170" y="200" as="sourcePoint" />
            <mxPoint x="440" y="270" as="targetPoint" />
          </mxGeometry>
        </mxCell>
        <mxCell id="M0ssaXphybHZ1SHobrus-56" value="" style="endArrow=none;html=1;rounded=0;entryX=0;entryY=0.5;entryDx=0;entryDy=0;exitX=1;exitY=0.3333333333333333;exitDx=0;exitDy=0;exitPerimeter=0;" edge="1" parent="1" source="M0ssaXphybHZ1SHobrus-44" target="M0ssaXphybHZ1SHobrus-49">
          <mxGeometry width="50" height="50" relative="1" as="geometry">
            <mxPoint x="170" y="275" as="sourcePoint" />
            <mxPoint x="440" y="345" as="targetPoint" />
          </mxGeometry>
        </mxCell>
        <mxCell id="M0ssaXphybHZ1SHobrus-58" value="Consultar os seus personagens" style="ellipse;whiteSpace=wrap;html=1;" vertex="1" parent="1">
          <mxGeometry x="770" y="420" width="120" height="80" as="geometry" />
        </mxCell>
        <mxCell id="M0ssaXphybHZ1SHobrus-59" value="" style="endArrow=none;html=1;rounded=0;entryX=0;entryY=0.5;entryDx=0;entryDy=0;exitX=1;exitY=0.3333333333333333;exitDx=0;exitDy=0;exitPerimeter=0;" edge="1" parent="1" source="M0ssaXphybHZ1SHobrus-44" target="M0ssaXphybHZ1SHobrus-58">
          <mxGeometry width="50" height="50" relative="1" as="geometry">
            <mxPoint x="170" y="270" as="sourcePoint" />
            <mxPoint x="440" y="463" as="targetPoint" />
          </mxGeometry>
        </mxCell>
        <mxCell id="M0ssaXphybHZ1SHobrus-63" value="" style="endArrow=none;html=1;rounded=0;entryX=0;entryY=0.5;entryDx=0;entryDy=0;exitX=1;exitY=0.3333333333333333;exitDx=0;exitDy=0;exitPerimeter=0;" edge="1" parent="1" source="M0ssaXphybHZ1SHobrus-44" target="M0ssaXphybHZ1SHobrus-51">
          <mxGeometry width="50" height="50" relative="1" as="geometry">
            <mxPoint x="190" y="320" as="sourcePoint" />
            <mxPoint x="460" y="510" as="targetPoint" />
          </mxGeometry>
        </mxCell>
        <mxCell id="M0ssaXphybHZ1SHobrus-66" value="" style="endArrow=none;html=1;rounded=0;exitX=0.5;exitY=0;exitDx=0;exitDy=0;entryX=0;entryY=0.3333333333333333;entryDx=0;entryDy=0;entryPerimeter=0;" edge="1" parent="1" source="M0ssaXphybHZ1SHobrus-52" target="M0ssaXphybHZ1SHobrus-46">
          <mxGeometry width="50" height="50" relative="1" as="geometry">
            <mxPoint x="790" y="350" as="sourcePoint" />
            <mxPoint x="840" y="300" as="targetPoint" />
            <Array as="points">
              <mxPoint x="900" y="580" />
            </Array>
          </mxGeometry>
        </mxCell>
        <mxCell id="M0ssaXphybHZ1SHobrus-67" value="Fazer Missões e Objetivos" style="ellipse;whiteSpace=wrap;html=1;" vertex="1" parent="1">
          <mxGeometry x="490" y="730" width="120" height="80" as="geometry" />
        </mxCell>
        <mxCell id="M0ssaXphybHZ1SHobrus-68" value="" style="endArrow=none;html=1;rounded=0;exitX=0.5;exitY=0;exitDx=0;exitDy=0;entryX=0;entryY=0.3333333333333333;entryDx=0;entryDy=0;entryPerimeter=0;" edge="1" parent="1" source="M0ssaXphybHZ1SHobrus-67" target="M0ssaXphybHZ1SHobrus-46">
          <mxGeometry width="50" height="50" relative="1" as="geometry">
            <mxPoint x="620" y="720" as="sourcePoint" />
            <mxPoint x="660" y="250" as="targetPoint" />
            <Array as="points">
              <mxPoint x="810" y="620" />
            </Array>
          </mxGeometry>
        </mxCell>
        <mxCell id="M0ssaXphybHZ1SHobrus-69" value="Verficar Password" style="ellipse;whiteSpace=wrap;html=1;" vertex="1" parent="1">
          <mxGeometry x="750" y="90" width="120" height="80" as="geometry" />
        </mxCell>
        <mxCell id="M0ssaXphybHZ1SHobrus-70" value="Exibir Erro de Login" style="ellipse;whiteSpace=wrap;html=1;" vertex="1" parent="1">
          <mxGeometry x="770" y="180" width="120" height="80" as="geometry" />
        </mxCell>
        <mxCell id="M0ssaXphybHZ1SHobrus-71" value="Verificar se tem Personagens" style="ellipse;whiteSpace=wrap;html=1;" vertex="1" parent="1">
          <mxGeometry x="610" y="230" width="120" height="80" as="geometry" />
        </mxCell>
        <mxCell id="M0ssaXphybHZ1SHobrus-72" value="Exibir mensagem de &quot;Nao existe Personagens&quot;" style="ellipse;whiteSpace=wrap;html=1;" vertex="1" parent="1">
          <mxGeometry x="570" y="350" width="120" height="80" as="geometry" />
        </mxCell>
        <mxCell id="M0ssaXphybHZ1SHobrus-73" value="Verificar se existe uma sala com o código inserido" style="ellipse;whiteSpace=wrap;html=1;" vertex="1" parent="1">
          <mxGeometry x="630" y="480" width="120" height="80" as="geometry" />
        </mxCell>
        <mxCell id="M0ssaXphybHZ1SHobrus-74" value="Exibir erro de Não existir salas" style="ellipse;whiteSpace=wrap;html=1;" vertex="1" parent="1">
          <mxGeometry x="585" y="570" width="120" height="80" as="geometry" />
        </mxCell>
        <mxCell id="M0ssaXphybHZ1SHobrus-75" value="Verificar se a sala tem jogadores suficientes para começar o jogo" style="ellipse;whiteSpace=wrap;html=1;" vertex="1" parent="1">
          <mxGeometry x="220" y="690" width="120" height="80" as="geometry" />
        </mxCell>
        <mxCell id="M0ssaXphybHZ1SHobrus-76" value="Exibir mensagem de não existir jogares suficientes na sala" style="ellipse;whiteSpace=wrap;html=1;" vertex="1" parent="1">
          <mxGeometry x="340" y="770" width="120" height="80" as="geometry" />
        </mxCell>
        <mxCell id="M0ssaXphybHZ1SHobrus-77" value="&amp;lt;&amp;lt;incluir&amp;gt;&amp;gt;" style="endArrow=open;endSize=12;dashed=1;html=1;rounded=0;entryX=0;entryY=0.5;entryDx=0;entryDy=0;" edge="1" parent="1" target="M0ssaXphybHZ1SHobrus-69">
          <mxGeometry x="-0.0046" width="160" relative="1" as="geometry">
            <mxPoint x="560" y="169.58" as="sourcePoint" />
            <mxPoint x="680" y="170" as="targetPoint" />
            <mxPoint as="offset" />
          </mxGeometry>
        </mxCell>
        <mxCell id="M0ssaXphybHZ1SHobrus-78" value="&amp;lt;&amp;lt;exclude&amp;gt;&amp;gt;" style="endArrow=open;endSize=12;dashed=1;html=1;rounded=0;entryX=1;entryY=0.5;entryDx=0;entryDy=0;exitX=0;exitY=0.5;exitDx=0;exitDy=0;" edge="1" parent="1" source="M0ssaXphybHZ1SHobrus-70" target="M0ssaXphybHZ1SHobrus-47">
          <mxGeometry width="160" relative="1" as="geometry">
            <mxPoint x="550" y="420" as="sourcePoint" />
            <mxPoint x="710" y="420" as="targetPoint" />
          </mxGeometry>
        </mxCell>
        <mxCell id="M0ssaXphybHZ1SHobrus-81" value="&amp;lt;&amp;lt;incluir&amp;gt;&amp;gt;" style="endArrow=open;endSize=12;dashed=1;html=1;rounded=0;entryX=0;entryY=0.5;entryDx=0;entryDy=0;exitX=1;exitY=0.5;exitDx=0;exitDy=0;" edge="1" parent="1" source="M0ssaXphybHZ1SHobrus-49" target="M0ssaXphybHZ1SHobrus-71">
          <mxGeometry width="160" relative="1" as="geometry">
            <mxPoint x="450" y="470" as="sourcePoint" />
            <mxPoint x="610" y="470" as="targetPoint" />
          </mxGeometry>
        </mxCell>
        <mxCell id="M0ssaXphybHZ1SHobrus-82" value="&amp;lt;&amp;lt;exclude&amp;gt;&amp;gt;" style="endArrow=open;endSize=12;dashed=1;html=1;rounded=0;entryX=1;entryY=0.5;entryDx=0;entryDy=0;exitX=0;exitY=0.5;exitDx=0;exitDy=0;" edge="1" parent="1" source="M0ssaXphybHZ1SHobrus-72" target="M0ssaXphybHZ1SHobrus-49">
          <mxGeometry width="160" relative="1" as="geometry">
            <mxPoint x="490" y="360" as="sourcePoint" />
            <mxPoint x="650" y="360" as="targetPoint" />
          </mxGeometry>
        </mxCell>
        <mxCell id="M0ssaXphybHZ1SHobrus-83" value="&amp;lt;&amp;lt;incluir&amp;gt;&amp;gt;" style="endArrow=open;endSize=12;dashed=1;html=1;rounded=0;entryX=0.035;entryY=0.573;entryDx=0;entryDy=0;entryPerimeter=0;exitX=1;exitY=0.5;exitDx=0;exitDy=0;" edge="1" parent="1" source="M0ssaXphybHZ1SHobrus-50" target="M0ssaXphybHZ1SHobrus-73">
          <mxGeometry width="160" relative="1" as="geometry">
            <mxPoint x="550" y="510" as="sourcePoint" />
            <mxPoint x="710" y="510" as="targetPoint" />
          </mxGeometry>
        </mxCell>
        <mxCell id="M0ssaXphybHZ1SHobrus-84" value="&amp;lt;&amp;lt;exclude&amp;gt;&amp;gt;" style="endArrow=open;endSize=12;dashed=1;html=1;rounded=0;entryX=0.951;entryY=0.677;entryDx=0;entryDy=0;entryPerimeter=0;exitX=0;exitY=0.5;exitDx=0;exitDy=0;" edge="1" parent="1" source="M0ssaXphybHZ1SHobrus-74" target="M0ssaXphybHZ1SHobrus-50">
          <mxGeometry width="160" relative="1" as="geometry">
            <mxPoint x="550" y="530" as="sourcePoint" />
            <mxPoint x="710" y="530" as="targetPoint" />
          </mxGeometry>
        </mxCell>
        <mxCell id="M0ssaXphybHZ1SHobrus-85" value="&amp;lt;&amp;lt;incluir&amp;gt;&amp;gt;" style="endArrow=open;endSize=12;dashed=1;html=1;rounded=0;entryX=1;entryY=0.5;entryDx=0;entryDy=0;exitX=0.007;exitY=0.677;exitDx=0;exitDy=0;exitPerimeter=0;" edge="1" parent="1" source="M0ssaXphybHZ1SHobrus-51" target="M0ssaXphybHZ1SHobrus-75">
          <mxGeometry width="160" relative="1" as="geometry">
            <mxPoint x="550" y="530" as="sourcePoint" />
            <mxPoint x="710" y="530" as="targetPoint" />
          </mxGeometry>
        </mxCell>
        <mxCell id="M0ssaXphybHZ1SHobrus-86" value="&amp;lt;&amp;lt;exclude&amp;gt;&amp;gt;" style="endArrow=open;endSize=12;dashed=1;html=1;rounded=0;exitX=0.965;exitY=0.344;exitDx=0;exitDy=0;exitPerimeter=0;entryX=0.5;entryY=1;entryDx=0;entryDy=0;" edge="1" parent="1" source="M0ssaXphybHZ1SHobrus-76" target="M0ssaXphybHZ1SHobrus-51">
          <mxGeometry width="160" relative="1" as="geometry">
            <mxPoint x="550" y="530" as="sourcePoint" />
            <mxPoint x="710" y="530" as="targetPoint" />
          </mxGeometry>
        </mxCell>
        <mxCell id="M0ssaXphybHZ1SHobrus-87" value="Verifica se algum jogador alcançou o objetivo" style="ellipse;whiteSpace=wrap;html=1;" vertex="1" parent="1">
          <mxGeometry x="850" y="690" width="120" height="80" as="geometry" />
        </mxCell>
        <mxCell id="M0ssaXphybHZ1SHobrus-88" value="&amp;lt;&amp;lt;includir&amp;gt;&amp;gt;" style="endArrow=open;endSize=12;dashed=1;html=1;rounded=0;exitX=0.896;exitY=0.792;exitDx=0;exitDy=0;exitPerimeter=0;entryX=0;entryY=0.5;entryDx=0;entryDy=0;" edge="1" parent="1" source="M0ssaXphybHZ1SHobrus-52" target="M0ssaXphybHZ1SHobrus-87">
          <mxGeometry width="160" relative="1" as="geometry">
            <mxPoint x="730" y="640" as="sourcePoint" />
            <mxPoint x="890" y="640" as="targetPoint" />
          </mxGeometry>
        </mxCell>
        <mxCell id="M0ssaXphybHZ1SHobrus-92" value="" style="endArrow=none;html=1;rounded=0;exitX=1;exitY=0.3333333333333333;exitDx=0;exitDy=0;exitPerimeter=0;entryX=0;entryY=0.5;entryDx=0;entryDy=0;" edge="1" parent="1" source="M0ssaXphybHZ1SHobrus-44" target="M0ssaXphybHZ1SHobrus-50">
          <mxGeometry width="50" height="50" relative="1" as="geometry">
            <mxPoint x="430" y="510" as="sourcePoint" />
            <mxPoint x="480" y="460" as="targetPoint" />
          </mxGeometry>
        </mxCell>
        <mxCell id="M0ssaXphybHZ1SHobrus-93" value="&amp;lt;&amp;lt;incluir&amp;gt;&amp;gt;" style="endArrow=open;endSize=12;dashed=1;html=1;rounded=0;exitX=0;exitY=0;exitDx=0;exitDy=0;entryX=0.972;entryY=0.615;entryDx=0;entryDy=0;entryPerimeter=0;" edge="1" parent="1" source="M0ssaXphybHZ1SHobrus-58" target="M0ssaXphybHZ1SHobrus-71">
          <mxGeometry width="160" relative="1" as="geometry">
            <mxPoint x="450" y="380" as="sourcePoint" />
            <mxPoint x="610" y="380" as="targetPoint" />
          </mxGeometry>
        </mxCell>
        <mxCell id="M0ssaXphybHZ1SHobrus-94" value="&amp;lt;&amp;lt;exclude&amp;gt;&amp;gt;" style="endArrow=open;endSize=12;dashed=1;html=1;rounded=0;exitX=0.986;exitY=0.583;exitDx=0;exitDy=0;exitPerimeter=0;" edge="1" parent="1" source="M0ssaXphybHZ1SHobrus-72" target="M0ssaXphybHZ1SHobrus-58">
          <mxGeometry width="160" relative="1" as="geometry">
            <mxPoint x="450" y="380" as="sourcePoint" />
            <mxPoint x="610" y="380" as="targetPoint" />
          </mxGeometry>
        </mxCell>
        <mxCell id="M0ssaXphybHZ1SHobrus-98" value="&lt;font style=&quot;font-size: 24px;&quot;&gt;GameMaster&lt;/font&gt;" style="text;html=1;align=center;verticalAlign=middle;whiteSpace=wrap;rounded=0;" vertex="1" parent="1">
          <mxGeometry x="570" y="60" width="110" height="80" as="geometry" />
        </mxCell>
        <mxCell id="M0ssaXphybHZ1SHobrus-99" value="" style="endArrow=none;html=1;rounded=0;exitX=1;exitY=0.5;exitDx=0;exitDy=0;entryX=0;entryY=0.3333333333333333;entryDx=0;entryDy=0;entryPerimeter=0;" edge="1" parent="1" source="M0ssaXphybHZ1SHobrus-51" target="M0ssaXphybHZ1SHobrus-46">
          <mxGeometry width="50" height="50" relative="1" as="geometry">
            <mxPoint x="770" y="510" as="sourcePoint" />
            <mxPoint x="820" y="460" as="targetPoint" />
            <Array as="points">
              <mxPoint x="670" y="670" />
              <mxPoint x="940" y="460" />
            </Array>
          </mxGeometry>
        </mxCell>
        <mxCell id="M0ssaXphybHZ1SHobrus-100" value="Salvar o Estado do Jogo" style="ellipse;whiteSpace=wrap;html=1;" vertex="1" parent="1">
          <mxGeometry x="230" y="570" width="120" height="80" as="geometry" />
        </mxCell>
        <mxCell id="M0ssaXphybHZ1SHobrus-101" value="" style="endArrow=none;html=1;rounded=0;entryX=1;entryY=0.3333333333333333;entryDx=0;entryDy=0;entryPerimeter=0;exitX=0;exitY=0;exitDx=0;exitDy=0;" edge="1" parent="1" source="M0ssaXphybHZ1SHobrus-100" target="M0ssaXphybHZ1SHobrus-44">
          <mxGeometry width="50" height="50" relative="1" as="geometry">
            <mxPoint x="130" y="560" as="sourcePoint" />
            <mxPoint x="180" y="510" as="targetPoint" />
          </mxGeometry>
        </mxCell>
      </root>
    </mxGraphModel>
  </diagram>
</mxfile>
